<?xml version="1.0" encoding="utf-8"?>
<!-- Generator: Adobe Illustrator 16.0.0, SVG Export Plug-In . SVG Version: 6.00 Build 0)  -->
<!DOCTYPE svg PUBLIC "-//W3C//DTD SVG 1.1//EN" "http://www.w3.org/Graphics/SVG/1.1/DTD/svg11.dtd">
<svg version="1.1" id="Layer_1" xmlns="http://www.w3.org/2000/svg" xmlns:xlink="http://www.w3.org/1999/xlink" x="0px" y="0px"
	 width="53.6px" height="52.4px" viewBox="0 0 53.6 52.4" style="enable-background:new 0 0 53.6 52.4;" xml:space="preserve">
<style type="text/css">
<![CDATA[
	.st0{fill:url(#SVGID_1_);}
	.st1{fill:url(#SVGID_2_);}
	.st2{fill:url(#SVGID_3_);}
	.st3{fill:url(#SVGID_4_);}
	.st4{fill:url(#SVGID_5_);}
	.st5{fill:url(#SVGID_6_);}
]]>
</style>
<g>
	<linearGradient id="SVGID_1_" gradientUnits="userSpaceOnUse" x1="50.2114" y1="50.084" x2="3.3784" y2="3.917">
		<stop  offset="0" style="stop-color:#00CCFF"/>
		<stop  offset="1" style="stop-color:#6600FF"/>
	</linearGradient>
	<path class="st0" d="M46.7,3.4h-40C4.8,3.4,3.2,5,3.2,6.9v40c0,1.9,1.6,3.5,3.5,3.5h40c1.9,0,3.5-1.6,3.5-3.5v-40
		C50.2,5,48.6,3.4,46.7,3.4z M6.7,6.4h40c0.3,0,0.5,0.2,0.5,0.5v4.5h-41V6.9C6.2,6.6,6.4,6.4,6.7,6.4z M46.7,47.4h-40
		c-0.3,0-0.5-0.2-0.5-0.5V14.4h41v32.5C47.2,47.2,47,47.4,46.7,47.4z"/>
	<linearGradient id="SVGID_2_" gradientUnits="userSpaceOnUse" x1="50.3394" y1="49.9541" x2="3.5063" y2="3.7871">
		<stop  offset="0" style="stop-color:#00CCFF"/>
		<stop  offset="1" style="stop-color:#6600FF"/>
	</linearGradient>
	<path class="st1" d="M8.7,10.4c0.8,0,1.5-0.7,1.5-1.5S9.5,7.4,8.7,7.4S7.2,8.1,7.2,8.9S7.9,10.4,8.7,10.4z"/>
	<linearGradient id="SVGID_3_" gradientUnits="userSpaceOnUse" x1="52.311" y1="47.9551" x2="5.478" y2="1.7881">
		<stop  offset="0" style="stop-color:#00CCFF"/>
		<stop  offset="1" style="stop-color:#6600FF"/>
	</linearGradient>
	<path class="st2" d="M12.7,10.4c0.8,0,1.5-0.7,1.5-1.5s-0.7-1.5-1.5-1.5s-1.5,0.7-1.5,1.5S11.9,10.4,12.7,10.4z"/>
	<linearGradient id="SVGID_4_" gradientUnits="userSpaceOnUse" x1="54.2827" y1="45.9551" x2="7.4497" y2="-0.2119">
		<stop  offset="0" style="stop-color:#00CCFF"/>
		<stop  offset="1" style="stop-color:#6600FF"/>
	</linearGradient>
	<path class="st3" d="M16.7,10.4c0.8,0,1.5-0.7,1.5-1.5s-0.7-1.5-1.5-1.5s-1.5,0.7-1.5,1.5S15.9,10.4,16.7,10.4z"/>
	<linearGradient id="SVGID_5_" gradientUnits="userSpaceOnUse" x1="48.4595" y1="51.8613" x2="1.6265" y2="5.6943">
		<stop  offset="0" style="stop-color:#00CCFF"/>
		<stop  offset="1" style="stop-color:#6600FF"/>
	</linearGradient>
	<path class="st4" d="M35.4,33.6h-8c-0.8,0-1.5,0.7-1.5,1.5s0.7,1.5,1.5,1.5h8c0.8,0,1.5-0.7,1.5-1.5S36.3,33.6,35.4,33.6z"/>
	<linearGradient id="SVGID_6_" gradientUnits="userSpaceOnUse" x1="43.3052" y1="57.0908" x2="-3.5278" y2="10.9238">
		<stop  offset="0" style="stop-color:#00CCFF"/>
		<stop  offset="1" style="stop-color:#6600FF"/>
	</linearGradient>
	<path class="st5" d="M18.9,26.7c-0.6-0.6-1.5-0.6-2.1,0c-0.6,0.6-0.6,1.5,0,2.1L20,32l-3.2,3.2c-0.6,0.6-0.6,1.5,0,2.1
		c0.3,0.3,0.7,0.4,1.1,0.4s0.8-0.1,1.1-0.4l4.2-4.2c0.6-0.6,0.6-1.5,0-2.1L18.9,26.7z"/>
</g>
</svg>
