<?xml version="1.0" encoding="utf-8"?>
<!-- Generator: Adobe Illustrator 16.0.0, SVG Export Plug-In . SVG Version: 6.00 Build 0)  -->
<!DOCTYPE svg PUBLIC "-//W3C//DTD SVG 1.1//EN" "http://www.w3.org/Graphics/SVG/1.1/DTD/svg11.dtd">
<svg version="1.1" id="Layer_1" xmlns="http://www.w3.org/2000/svg" xmlns:xlink="http://www.w3.org/1999/xlink" x="0px" y="0px"
	 width="48px" height="48px" viewBox="0 0 48 48" style="enable-background:new 0 0 48 48;" xml:space="preserve">
<style type="text/css">
<![CDATA[
	.st0{fill:url(#SVGID_1_);}
	.st1{fill:url(#SVGID_2_);}
	.st2{fill:url(#SVGID_3_);}
	.st3{fill:url(#SVGID_4_);}
	.st4{fill:url(#SVGID_5_);}
	.st5{fill:url(#SVGID_6_);}
]]>
</style>
<g>
	<linearGradient id="SVGID_1_" gradientUnits="userSpaceOnUse" x1="47.584" y1="47.584" x2="0.2505" y2="0.2505">
		<stop  offset="0" style="stop-color:#00CCFF"/>
		<stop  offset="1" style="stop-color:#6600FF"/>
	</linearGradient>
	<path class="st0" d="M40.6,7.4C36.2,2.9,30.3,0.5,24,0.5S11.8,2.9,7.4,7.4c-9.2,9.2-9.2,24.1,0,33.2c4.4,4.4,10.3,6.9,16.6,6.9
		s12.2-2.4,16.6-6.9C49.8,31.5,49.8,16.5,40.6,7.4z M38.5,38.5c-3.9,3.9-9,6-14.5,6c-5.5,0-10.6-2.1-14.5-6c-8-8-8-21,0-29
		c3.9-3.9,9-6,14.5-6s10.6,2.1,14.5,6C46.5,17.5,46.5,30.5,38.5,38.5z"/>
	<linearGradient id="SVGID_2_" gradientUnits="userSpaceOnUse" x1="47.584" y1="47.584" x2="0.2505" y2="0.2505">
		<stop  offset="0" style="stop-color:#00CCFF"/>
		<stop  offset="1" style="stop-color:#6600FF"/>
	</linearGradient>
	<path class="st1" d="M36.4,11.6c-0.4-0.4-1.1-0.6-1.7-0.3l-15.6,7.1c-0.2,0.1-0.3,0.2-0.4,0.3c0,0,0,0,0,0s0,0,0,0
		c-0.1,0.1-0.2,0.3-0.3,0.4l-7.1,15.6c-0.3,0.6-0.1,1.2,0.3,1.7c0.3,0.3,0.7,0.4,1.1,0.4c0.2,0,0.4,0,0.6-0.1l15.6-7.1
		c0.3-0.1,0.6-0.4,0.7-0.7l7.1-15.6C36.9,12.7,36.8,12.1,36.4,11.6z M20.2,22.3l5.4,5.4l-9.9,4.5L20.2,22.3z M27.8,25.7l-5.4-5.4
		l9.9-4.5L27.8,25.7z"/>
	<linearGradient id="SVGID_3_" gradientUnits="userSpaceOnUse" x1="55.167" y1="40.001" x2="7.8335" y2="-7.3325">
		<stop  offset="0" style="stop-color:#00CCFF"/>
		<stop  offset="1" style="stop-color:#6600FF"/>
	</linearGradient>
	<path class="st2" d="M24,11.3c0.8,0,1.5-0.7,1.5-1.5v-2c0-0.8-0.7-1.5-1.5-1.5c-0.8,0-1.5,0.7-1.5,1.5v2
		C22.5,10.7,23.2,11.3,24,11.3z"/>
	<linearGradient id="SVGID_4_" gradientUnits="userSpaceOnUse" x1="40.001" y1="55.167" x2="-7.3325" y2="7.8335">
		<stop  offset="0" style="stop-color:#00CCFF"/>
		<stop  offset="1" style="stop-color:#6600FF"/>
	</linearGradient>
	<path class="st3" d="M24,36.7c-0.8,0-1.5,0.7-1.5,1.5v2c0,0.8,0.7,1.5,1.5,1.5c0.8,0,1.5-0.7,1.5-1.5v-2
		C25.5,37.3,24.8,36.7,24,36.7z"/>
	<linearGradient id="SVGID_5_" gradientUnits="userSpaceOnUse" x1="55.166" y1="40.002" x2="7.8325" y2="-7.3315">
		<stop  offset="0" style="stop-color:#00CCFF"/>
		<stop  offset="1" style="stop-color:#6600FF"/>
	</linearGradient>
	<path class="st4" d="M40.2,22.5h-2c-0.8,0-1.5,0.7-1.5,1.5s0.7,1.5,1.5,1.5h2c0.8,0,1.5-0.7,1.5-1.5S41,22.5,40.2,22.5z"/>
	<linearGradient id="SVGID_6_" gradientUnits="userSpaceOnUse" x1="40.001" y1="55.167" x2="-7.3325" y2="7.8335">
		<stop  offset="0" style="stop-color:#00CCFF"/>
		<stop  offset="1" style="stop-color:#6600FF"/>
	</linearGradient>
	<path class="st5" d="M9.8,22.5h-2c-0.8,0-1.5,0.7-1.5,1.5s0.7,1.5,1.5,1.5h2c0.8,0,1.5-0.7,1.5-1.5S10.7,22.5,9.8,22.5z"/>
</g>
</svg>
