<?xml version="1.0" encoding="UTF-8"?>
<svg width="48px" height="45px" viewBox="0 0 48 45" version="1.1" xmlns="http://www.w3.org/2000/svg" xmlns:xlink="http://www.w3.org/1999/xlink">
    <!-- Generator: Sketch 50 (54983) - http://www.bohemiancoding.com/sketch -->
    <title>Group</title>
    <desc>Created with Sketch.</desc>
    <defs></defs>
    <g id="Page-1" stroke="none" stroke-width="1" fill="none" fill-rule="evenodd">
        <g id="API-Docs-Copy-3" transform="translate(-490.000000, -225.000000)">
            <g id="Group" transform="translate(491.000000, 226.000000)">
                <polygon id="Path-6" fill-opacity="0.2" fill="#0076FF" points="0.417724609 13.0749512 4.88037109 10.7861328 9.5859375 12.269043 14.2773438 11.3200684 15.8793945 9.26342773 14.7338867 6.77587891 18.3330078 4.88476562 21.3242188 6.02685547 24.9807129 6.02685547 27.7275391 4.88476562 32.2602539 7.39916992 31.1291504 8.9798584 32.2602539 10.7861328 34.3100586 11.7927246 39.2443848 11.7927246 41.2697754 10.7861328 45.470459 13.0749512 22.9440918 22.8647461"></polygon>
                <polygon id="Stroke-5154" stroke="#0076FF" stroke-width="2" stroke-linecap="round" stroke-linejoin="round" points="0 13 0 32.5132212 23 42.2089844 23 22.6957632"></polygon>
                <polygon id="Stroke-5155" stroke="#0076FF" stroke-width="2" stroke-linecap="round" stroke-linejoin="round" points="23 22.6957632 23 42.2089844 46 32.5132212 46 13"></polygon>
                <path d="M29,14 C29,15.657 26.313,17 23,17 C19.687,17 17,15.657 17,14 C17,12.344 19.687,11 23,11 C26.313,11 29,12.344 29,14 L29,14 Z" id="Stroke-5156" stroke="#0076FF" stroke-width="2" fill="#FFFFFF" stroke-linecap="round" stroke-linejoin="round"></path>
                <path d="M29,3 C29,4.657 26.313,6 23,6 C19.687,6 17,4.657 17,3 C17,1.344 19.687,0 23,0 C26.313,0 29,1.344 29,3 L29,3 Z" id="Stroke-5157" stroke="#0076FF" stroke-width="2" stroke-linecap="round" stroke-linejoin="round"></path>
                <path d="M43,9 C43,10.657 40.313,12 37,12 C33.687,12 31,10.657 31,9 C31,7.344 33.687,6 37,6 C40.313,6 43,7.344 43,9 L43,9 Z" id="Stroke-5158" stroke="#0076FF" stroke-width="2" stroke-linecap="round" stroke-linejoin="round"></path>
                <path d="M16,9 C16,10.657 13.313,12 10,12 C6.687,12 4,10.657 4,9 C4,7.344 6.687,6 10,6 C13.313,6 16,7.344 16,9 L16,9 Z" id="Stroke-5159" stroke="#0076FF" stroke-width="2" stroke-linecap="round" stroke-linejoin="round"></path>
                <path d="M5.1475,10.7617 L0.000500000002,12.9997" id="Stroke-5160" stroke="#0076FF" stroke-width="2" stroke-linecap="round" stroke-linejoin="round"></path>
                <path d="M18.4746,4.9687 L14.1636,6.8417" id="Stroke-5161" stroke="#0076FF" stroke-width="2" stroke-linecap="round" stroke-linejoin="round"></path>
                <path d="M32.3887,7.0811 L27.5217,4.9671" id="Stroke-5162" stroke="#0076FF" stroke-width="2" stroke-linecap="round" stroke-linejoin="round"></path>
                <path d="M46,13 L41.4,11.001" id="Stroke-5163" stroke="#0076FF" stroke-width="2" stroke-linecap="round" stroke-linejoin="round"></path>
            </g>
        </g>
    </g>
</svg>