<?xml version="1.0" encoding="UTF-8"?>
<svg width="48px" height="48px" viewBox="0 0 48 48" version="1.1" xmlns="http://www.w3.org/2000/svg" xmlns:xlink="http://www.w3.org/1999/xlink">
    <!-- Generator: Sketch 50 (54983) - http://www.bohemiancoding.com/sketch -->
    <title>Buoy</title>
    <desc>Created with Sketch.</desc>
    <defs></defs>
    <g id="Page-1" stroke="none" stroke-width="1" fill="none" fill-rule="evenodd">
        <g id="API-Docs-Copy-3" transform="translate(-910.000000, -223.000000)">
            <g id="Buoy" transform="translate(934.000000, 247.000000) rotate(-315.000000) translate(-934.000000, -247.000000) translate(910.000000, 223.000000)">
                <circle id="Oval-3" stroke="#0076FF" stroke-width="2" cx="24" cy="24" r="23"></circle>
                <circle id="Oval-3" stroke="#0076FF" stroke-width="2" cx="24" cy="24" r="11"></circle>
                <rect id="Rectangle-8" fill="#0076FF" transform="translate(19.600076, 7.579261) rotate(-15.000000) translate(-19.600076, -7.579261) " x="18.6000762" y="1.57926095" width="2" height="12"></rect>
                <rect id="Rectangle-8" fill="#0076FF" transform="translate(28.399924, 7.579261) rotate(-345.000000) translate(-28.399924, -7.579261) " x="27.3999238" y="1.57926095" width="2" height="12"></rect>
                <rect id="Rectangle-8" fill="#0076FF" transform="translate(7.579261, 28.399924) rotate(-105.000000) translate(-7.579261, -28.399924) " x="6.57926095" y="22.3999238" width="2" height="12"></rect>
                <rect id="Rectangle-8" fill="#0076FF" transform="translate(40.420739, 28.399924) rotate(-255.000000) translate(-40.420739, -28.399924) " x="39.420739" y="22.3999238" width="2" height="12"></rect>
                <rect id="Rectangle-8" fill="#0076FF" transform="translate(40.420739, 19.600076) rotate(-285.000000) translate(-40.420739, -19.600076) " x="39.420739" y="13.6000762" width="2" height="12"></rect>
                <rect id="Rectangle-8" fill="#0076FF" transform="translate(28.399924, 40.420739) rotate(-195.000000) translate(-28.399924, -40.420739) " x="27.3999238" y="34.420739" width="2" height="12"></rect>
                <rect id="Rectangle-8" fill="#0076FF" transform="translate(19.600076, 40.420739) rotate(-165.000000) translate(-19.600076, -40.420739) " x="18.6000762" y="34.420739" width="2" height="12"></rect>
                <polygon id="Path-9" fill-opacity="0.2" fill="#0076FF" transform="translate(7.275879, 23.879639) rotate(-90.000000) translate(-7.275879, -23.879639) " points="1.29125977 18.7802734 4.49633789 30.1203613 10.392334 30.1203613 13.260498 18.7802734 7.25610352 17.638916"></polygon>
                <rect id="Rectangle-8" fill="#0076FF" transform="translate(7.579261, 19.600076) rotate(-75.000000) translate(-7.579261, -19.600076) " x="6.57926095" y="13.6000762" width="2" height="12"></rect>
                <polygon id="Path-9" fill-opacity="0.2" fill="#0076FF" transform="translate(24.050537, 40.623535) rotate(-180.000000) translate(-24.050537, -40.623535) " points="18.065918 35.5241699 21.2709961 46.8642578 27.1669922 46.8642578 30.0351562 35.5241699 24.0307617 34.3828125"></polygon>
                <polygon id="Path-9" fill-opacity="0.2" fill="#0076FF" points="18.0351562 2.00561523 21.2402344 13.3457031 27.1362305 13.3457031 30.0043945 2.00561523 24 0.864257812"></polygon>
                <polygon id="Path-9" fill-opacity="0.2" fill="#0076FF" transform="translate(40.794434, 23.848877) rotate(-270.000000) translate(-40.794434, -23.848877) " points="34.8098145 18.7495117 38.0148926 30.0895996 43.9108887 30.0895996 46.7790527 18.7495117 40.7746582 17.6081543"></polygon>
            </g>
        </g>
    </g>
</svg>