<?xml version="1.0" encoding="utf-8"?>
<!-- Generator: Adobe Illustrator 16.0.0, SVG Export Plug-In . SVG Version: 6.00 Build 0)  -->
<!DOCTYPE svg PUBLIC "-//W3C//DTD SVG 1.1//EN" "http://www.w3.org/Graphics/SVG/1.1/DTD/svg11.dtd">
<svg version="1.1" id="Layer_1" xmlns="http://www.w3.org/2000/svg" xmlns:xlink="http://www.w3.org/1999/xlink" x="0px" y="0px"
	 width="49px" height="64.7px" viewBox="0 0 49 64.7" style="enable-background:new 0 0 49 64.7;" xml:space="preserve">
<style type="text/css">
<![CDATA[
	.st0{fill:url(#SVGID_1_);}
	.st1{fill:url(#SVGID_2_);}
]]>
</style>
<g>
	<linearGradient id="SVGID_1_" gradientUnits="userSpaceOnUse" x1="8.9946" y1="8.9683" x2="40.4878" y2="56.4194">
		<stop  offset="0" style="stop-color:#00CCFF"/>
		<stop  offset="0.9995" style="stop-color:#6600FF"/>
	</linearGradient>
	<path class="st0" d="M35.8,8.8h-22c-2.8,0-5,2.2-5,5v38c0,2.8,2.2,5,5,5h22c2.8,0,5-2.2,5-5v-38C40.8,11.1,38.6,8.8,35.8,8.8z
		 M10.8,17.8h28v27h-28V17.8z M10.8,13.8c0-1.7,1.3-3,3-3h22c1.7,0,3,1.3,3,3v2h-28V13.8z M35.8,54.8h-22c-1.7,0-3-1.3-3-3v-5h28v5
		C38.8,53.5,37.5,54.8,35.8,54.8z"/>
	<linearGradient id="SVGID_2_" gradientUnits="userSpaceOnUse" x1="0.7012" y1="14.4727" x2="32.1943" y2="61.9238">
		<stop  offset="0" style="stop-color:#00CCFF"/>
		<stop  offset="0.9995" style="stop-color:#6600FF"/>
	</linearGradient>
	<circle class="st1" cx="24.8" cy="50.8" r="2"/>
</g>
</svg>
