<?xml version="1.0" encoding="utf-8"?>
<!-- Generator: Adobe Illustrator 16.0.0, SVG Export Plug-In . SVG Version: 6.00 Build 0)  -->
<!DOCTYPE svg PUBLIC "-//W3C//DTD SVG 1.1//EN" "http://www.w3.org/Graphics/SVG/1.1/DTD/svg11.dtd">
<svg version="1.1" id="Layer_1" xmlns="http://www.w3.org/2000/svg" xmlns:xlink="http://www.w3.org/1999/xlink" x="0px" y="0px"
	 width="64.7px" height="62.3px" viewBox="0 0 64.7 62.3" style="enable-background:new 0 0 64.7 62.3;" xml:space="preserve">
<style type="text/css">
<![CDATA[
	.st0{fill:url(#SVGID_1_);}
	.st1{fill:url(#SVGID_2_);}
]]>
</style>
<g>
	<linearGradient id="SVGID_1_" gradientUnits="userSpaceOnUse" x1="10.6772" y1="6.6812" x2="58.2197" y2="52.373">
		<stop  offset="0" style="stop-color:#00CCFF"/>
		<stop  offset="1" style="stop-color:#6600FF"/>
	</linearGradient>
	<path class="st0" d="M15.2,41.9h34c0.6,0,1-0.4,1-1v-27c0-0.6-0.4-1-1-1h-34c-0.6,0-1,0.4-1,1v27C14.2,41.4,14.6,41.9,15.2,41.9z
		 M16.2,14.9h32v25h-32V14.9z"/>
	<linearGradient id="SVGID_2_" gradientUnits="userSpaceOnUse" x1="7.9487" y1="9.52" x2="55.4912" y2="55.2119">
		<stop  offset="0" style="stop-color:#00CCFF"/>
		<stop  offset="1" style="stop-color:#6600FF"/>
	</linearGradient>
	<path class="st1" d="M56.2,49.9c0-0.1,0-0.3-0.1-0.4c-0.8-2-1.7-4.2-1.9-4.7V11.9c0-1.7-1.3-3-3-3h-38c-1.7,0-3,1.3-3,3v32.8
		c-0.2,0.5-1.2,3-1.9,4.8c-0.1,0.1-0.1,0.3-0.1,0.4h0v2c0,1.7,1.3,3,3,3h42c1.7,0,3-1.3,3-3L56.2,49.9L56.2,49.9z M11.9,45.9h40.6
		c0.2,0.6,0.6,1.6,1.2,3h-43C11.3,47.3,11.7,46.4,11.9,45.9z M13.2,10.9h38c0.6,0,1,0.4,1,1v32h-40v-32
		C12.2,11.3,12.6,10.9,13.2,10.9z M53.2,52.9h-42c-0.6,0-1-0.4-1-1v-1h44v1C54.2,52.4,53.7,52.9,53.2,52.9z"/>
</g>
</svg>
