<?xml version="1.0" encoding="utf-8"?>
<!-- Generator: Adobe Illustrator 16.0.0, SVG Export Plug-In . SVG Version: 6.00 Build 0)  -->
<!DOCTYPE svg PUBLIC "-//W3C//DTD SVG 1.1//EN" "http://www.w3.org/Graphics/SVG/1.1/DTD/svg11.dtd">
<svg version="1.1" id="Layer_1" xmlns="http://www.w3.org/2000/svg" xmlns:xlink="http://www.w3.org/1999/xlink" x="0px" y="0px"
	 width="48px" height="48px" viewBox="0 0 48 48" style="enable-background:new 0 0 48 48;" xml:space="preserve">
<style type="text/css">
<![CDATA[
	.st0{fill:url(#SVGID_1_);}
]]>
</style>
<linearGradient id="SVGID_1_" gradientUnits="userSpaceOnUse" x1="41.7695" y1="50.7803" x2="3.9192" y2="9.9163">
	<stop  offset="0" style="stop-color:#00CCFF"/>
	<stop  offset="0.9995" style="stop-color:#6600FF"/>
</linearGradient>
<path class="st0" d="M46.3,44.2L25.8,11.6l5.5-8.8c0.4-0.7,0.2-1.6-0.5-2.1c-0.7-0.4-1.6-0.2-2.1,0.5L24,8.7l-4.7-7.5
	c-0.4-0.7-1.4-0.9-2.1-0.5c-0.7,0.4-0.9,1.4-0.5,2.1l5.5,8.8L1.7,44.2c-0.3,0.5-0.3,1,0,1.5C2,46.2,2.5,46.5,3,46.5h42
	c0.5,0,1-0.3,1.3-0.8C46.6,45.2,46.6,44.7,46.3,44.2z M22.5,16.8v26.7H5.7L22.5,16.8z M25.5,43.5V16.8l16.8,26.7H25.5z"/>
</svg>
