<?xml version="1.0" encoding="UTF-8"?>
<svg width="46px" height="49px" viewBox="0 0 46 49" version="1.1" xmlns="http://www.w3.org/2000/svg" xmlns:xlink="http://www.w3.org/1999/xlink">
    <!-- Generator: Sketch 50 (54983) - http://www.bohemiancoding.com/sketch -->
    <title>Group</title>
    <desc>Created with Sketch.</desc>
    <defs></defs>
    <g id="Page-1" stroke="none" stroke-width="1" fill="none" fill-rule="evenodd">
        <g id="API-Docs-Copy-3" transform="translate(-912.000000, -223.000000)">
            <g id="Group" transform="translate(913.000000, 224.000000)">
                <polygon id="Path-3" fill-opacity="0.2" fill="#0076FF" points="12.0800781 30.4064941 12.0800781 45.9377441 24.0883789 41.8564453 24.0883789 26.3825684"></polygon>
                <polygon id="Path-4" fill-opacity="0.2" fill="#0076FF" points="14.1687012 3.4465332 14.1687012 16.1486816 23.9494629 20.0134277 23.9494629 6.07250977"></polygon>
                <polygon id="Path-5" fill-opacity="0.2" fill="#0076FF" points="28.9335938 23.972168 36.0979004 21.1115723 43.2683105 23.972168 36.4370117 27.0334473"></polygon>
                <polygon id="Stroke-6011" stroke="#0076FF" stroke-width="2" stroke-linecap="round" stroke-linejoin="round" points="24 20.0732 34 16.0732 34 3.0732 24 6.0732 14 3.0732 14 16.0732"></polygon>
                <polyline id="Stroke-6012" stroke="#0076FF" stroke-width="2" stroke-linecap="round" stroke-linejoin="round" points="34 3.0732 24 0.0732 14 3.0732"></polyline>
                <path d="M24,6 L24,20" id="Stroke-6013" stroke="#0076FF" stroke-width="2" stroke-linecap="round" stroke-linejoin="round"></path>
                <polygon id="Stroke-6014" stroke="#0076FF" stroke-width="2" stroke-linecap="round" stroke-linejoin="round" points="36 37.0732 44 33.0732 44 24.0732 36 27.0732 28 24.0732 28 33.0732"></polygon>
                <polyline id="Stroke-6015" stroke="#0076FF" stroke-width="2" stroke-linecap="round" stroke-linejoin="round" points="44 24.0732 36 21.0732 28 24.0732"></polyline>
                <path d="M36,27 L36,37" id="Stroke-6016" stroke="#0076FF" stroke-width="2" stroke-linecap="round" stroke-linejoin="round"></path>
                <polygon id="Stroke-6017" stroke="#0076FF" stroke-width="2" stroke-linecap="round" stroke-linejoin="round" points="12 46.0732 24 42.0732 24 26.0732 12 30.0732 0 26.0732 0 42.0732"></polygon>
                <polyline id="Stroke-6018" stroke="#0076FF" stroke-width="2" stroke-linecap="round" stroke-linejoin="round" points="24 26.0732 12 22.0732 0 26.0732"></polyline>
                <path d="M12,30 L12,46" id="Stroke-6019" stroke="#0076FF" stroke-width="2" stroke-linecap="round" stroke-linejoin="round"></path>
            </g>
        </g>
    </g>
</svg>