<?xml version="1.0" encoding="utf-8"?>
<!-- Generator: Adobe Illustrator 16.0.0, SVG Export Plug-In . SVG Version: 6.00 Build 0)  -->
<!DOCTYPE svg PUBLIC "-//W3C//DTD SVG 1.1//EN" "http://www.w3.org/Graphics/SVG/1.1/DTD/svg11.dtd">
<svg version="1.1" id="Layer_1" xmlns="http://www.w3.org/2000/svg" xmlns:xlink="http://www.w3.org/1999/xlink" x="0px" y="0px"
	 width="48px" height="48px" viewBox="0 0 48 48" style="enable-background:new 0 0 48 48;" xml:space="preserve">
<style type="text/css">
<![CDATA[
	.st0{fill:url(#SVGID_1_);}
	.st1{fill:url(#SVGID_2_);}
]]>
</style>
<g>
	<linearGradient id="SVGID_1_" gradientUnits="userSpaceOnUse" x1="44.9336" y1="45.4385" x2="3.3086" y2="2.8135">
		<stop  offset="0" style="stop-color:#00CCFF"/>
		<stop  offset="1" style="stop-color:#6600FF"/>
	</linearGradient>
	<path class="st0" d="M46.5,2.7C46.5,2.7,46.5,2.7,46.5,2.7c0-0.2-0.1-0.3-0.1-0.4c0,0,0,0,0-0.1C46.2,2.1,46.1,2,46,1.9
		c0,0,0,0,0,0c-0.1-0.1-0.2-0.2-0.3-0.2c0,0,0,0,0,0c0,0,0,0,0,0c-0.1-0.1-0.3-0.1-0.4-0.1c0,0-0.1,0-0.1,0c0,0-0.1,0-0.1,0H15
		c-0.4,0-0.8,0.2-1.1,0.4l-12,12c-0.1,0.1-0.3,0.3-0.3,0.5c0,0,0,0,0,0c-0.1,0.2-0.1,0.4-0.1,0.5v30c0,0.8,0.7,1.5,1.5,1.5h30
		c0.2,0,0.4,0,0.5-0.1c0,0,0,0,0,0c0.2-0.1,0.4-0.2,0.5-0.3l12-12c0.3-0.3,0.4-0.7,0.4-1.1V3C46.5,2.9,46.5,2.8,46.5,2.7z
		 M32.4,13.5H20.1l9-9h12.3L32.4,13.5z M43.1,7l-0.6,6.3l-6,6l-1.7-4L43.1,7z M15.6,4.5h9.3l-8.9,8.9c0,0,0,0,0,0.1H6.6L15.6,4.5z
		 M4.5,16.5h27v27h-27V16.5z M34.5,41.4V22.3l0.1,0.3c0.2,0.5,0.6,0.8,1.1,0.9c0.1,0,0.2,0,0.3,0c0.4,0,0.8-0.2,1.1-0.4l6.4-6.4
		v15.8L34.5,41.4z"/>
	<linearGradient id="SVGID_2_" gradientUnits="userSpaceOnUse" x1="38.8711" y1="51.3594" x2="-2.7539" y2="8.7344">
		<stop  offset="0" style="stop-color:#00CCFF"/>
		<stop  offset="1" style="stop-color:#6600FF"/>
	</linearGradient>
	<path class="st1" d="M27.1,28l-2.7-4.5l-3.1,1.1L21,21.6h-5.4L15.2,25l-3.4-1.1l-2.4,4.6l2.5,2l-2.3,2.1l2.7,4.5l3.1-1.1l0.4,3.1
		H21l0.4-3.4l3.4,1.1l2.4-4.6l-2.5-1.9L27.1,28z M23.3,33.1l-1.7-0.5c-0.2-0.1-0.5-0.1-0.7-0.1c-1.2,0-2.2,0.9-2.4,2.1L18.4,36h-0.1
		l-0.2-1.3c-0.2-1.2-1.2-2.1-2.4-2.1c-0.3,0-0.6,0.1-0.8,0.2l-1.4,0.5l-0.1-0.2l1-0.9c0.5-0.5,0.8-1.2,0.8-1.9
		c0-0.7-0.4-1.4-0.9-1.8l-1.1-0.8l0.1-0.2l1.7,0.5c0.2,0.1,0.5,0.1,0.7,0.1c1.2,0,2.2-0.9,2.4-2.1l0.2-1.5h0.1l0.2,1.3
		c0.2,1.2,1.2,2.1,2.4,2.1c0.3,0,0.6-0.1,0.8-0.2l1.4-0.5l0.1,0.2l-1,0.9c-0.5,0.5-0.8,1.2-0.8,1.9c0,0.7,0.4,1.4,0.9,1.8l1.1,0.8
		L23.3,33.1z"/>
</g>
</svg>
