<svg width="60" height="60" viewBox="0 0 60 60" fill="none" xmlns="http://www.w3.org/2000/svg">
    <rect width="60" height="60" rx="8" fill="#105EFB"/>
    <circle cx="17.5" cy="17.5" r="17.5" transform="matrix(1 0 1.1088e-10 -1 12.5 47.4995)" fill="white"/>
    <mask id="mask0_2431_22423" style="mask-type:alpha" maskUnits="userSpaceOnUse" x="0" y="0" width="60" height="60">
    <rect width="60" height="60" rx="8" fill="#105EFB"/>
    </mask>
    <g mask="url(#mask0_2431_22423)">
    <path d="M68.5 12.4995C63.8587 12.4995 59.4075 14.3433 56.1256 17.6251C52.8437 20.907 51 25.3582 51 29.9995C51 34.6408 52.8437 39.092 56.1256 42.3739C59.4075 45.6558 63.8587 47.4995 68.5 47.4995L68.5 29.9995L68.5 12.4995Z" fill="#001B74"/>
    <path d="M-8.5 47.4995C-3.85871 47.4995 0.59248 45.6558 3.87437 42.3739C7.15625 39.092 9 34.6408 9 29.9995C9 25.3582 7.15626 20.907 3.87437 17.6251C0.592483 14.3433 -3.85871 12.4995 -8.5 12.4995L-8.5 29.9995L-8.5 47.4995Z" fill="#001B74"/>
    </g>
    <path d="M18.6667 27.4762L30 33.9524L41.3333 27.4762L30 21L18.6667 27.4762Z" stroke="#001B74" stroke-width="2" stroke-linecap="round" stroke-linejoin="round"/>
    <path d="M18.6667 31.5239L30 38.0001L41.3333 31.5239" stroke="#001B74" stroke-width="2" stroke-linecap="round" stroke-linejoin="round"/>
</svg>
    