<?xml version="1.0" encoding="UTF-8"?>
<svg width="123px" height="123px" viewBox="0 0 123 123" version="1.1" xmlns="http://www.w3.org/2000/svg" xmlns:xlink="http://www.w3.org/1999/xlink">
    <!-- Generator: Sketch 40 (33762) - http://www.bohemiancoding.com/sketch -->
    <title>slack-icon</title>
    <desc>Created with Sketch.</desc>
    <defs></defs>
    <g id="Page-1" stroke="none" stroke-width="1" fill="none" fill-rule="evenodd">
        <g id="slack-icon">
            <g id="Group">
                <path d="M79.8,8.1 C77.9,2.4 71.8,-0.7 66.1,1.1 C60.4,3 57.3,9.1 59.1,14.8 L87.2,101.2 C89.1,106.5 94.9,109.5 100.4,107.9 C106.2,106.2 109.7,100.1 107.8,94.5 C107.8,94.3 79.8,8.1 79.8,8.1 L79.8,8.1 Z" id="Shape" fill="#ECB32D"></path>
                <path d="M36.3,22.2 C34.4,16.5 28.3,13.4 22.6,15.2 C16.9,17.1 13.8,23.2 15.6,28.9 L43.7,115.3 C45.6,120.6 51.4,123.6 56.9,122 C62.7,120.3 66.2,114.2 64.3,108.6 C64.3,108.4 36.3,22.2 36.3,22.2 L36.3,22.2 Z" id="Shape" fill="#63C1A0"></path>
                <path d="M115.2,79.6 C120.9,77.7 124,71.6 122.2,65.9 C120.3,60.2 114.2,57.1 108.5,58.9 L22,87.1 C16.7,89 13.7,94.8 15.3,100.3 C17,106.1 23.1,109.6 28.7,107.7 C28.9,107.7 115.2,79.6 115.2,79.6 L115.2,79.6 Z" id="Shape" fill="#E01A59"></path>
                <path d="M40,104.1 C45.6,102.3 52.9,99.9 60.7,97.4 C58.9,91.8 56.5,84.5 54,76.7 L33.3,83.4 L40,104.1 L40,104.1 Z" id="Shape" fill="#331433"></path>
                <path d="M83.6,89.9 C91.4,87.4 98.7,85 104.3,83.2 C102.5,77.6 100.1,70.3 97.6,62.5 L76.9,69.2 L83.6,89.9 L83.6,89.9 Z" id="Shape" fill="#D62027"></path>
                <path d="M101,36.1 C106.7,34.2 109.8,28.1 108,22.4 C106.1,16.7 100,13.6 94.3,15.4 L7.9,43.5 C2.6,45.4 -0.4,51.2 1.2,56.7 C2.9,62.5 9,66 14.6,64.1 C14.8,64.1 101,36.1 101,36.1 L101,36.1 Z" id="Shape" fill="#89D3DF"></path>
                <path d="M25.9,60.5 C31.5,58.7 38.8,56.3 46.6,53.8 C44.1,46 41.7,38.7 39.9,33.1 L19.2,39.8 L25.9,60.5 L25.9,60.5 Z" id="Shape" fill="#258B74"></path>
                <path d="M69.4,46.4 C77.2,43.9 84.5,41.5 90.1,39.7 C87.6,31.9 85.2,24.6 83.4,19 L62.7,25.7 L69.4,46.4 L69.4,46.4 Z" id="Shape" fill="#819C3C"></path>
            </g>
        </g>
    </g>
</svg>